<svg xmlns="http://www.w3.org/2000/svg" stroke="currentColor" fill="currentColor" viewBox="0 0 50 50">
 <g>
  <path d="M23.6,0l2.5,11.9c0-0.3,0-3.2,3.1-5c4.4-2.5,1.9-5.6,1.9-5.6c2.8,0.7,3.4,4.6,1.6,6.5c-2.2,2.3-2.6,5-2.6,5.6
		l0,0.1l0,0l10.2-6.7l-6.7,10.2l0.1-0.1c0.5-0.4,2.4-2.1,5.6-1.2c4.9,1.3,5.3-2.6,5.3-2.6c1.4,2.5-0.8,5.7-3.4,5.7
		c-3.5,0.1-5.8,2.1-5.9,2.2l11.9,2.5l-11.9,2.5c0.3,0,3.2,0,5,3.1c2.5,4.4,5.6,1.9,5.6,1.9c-0.7,2.8-4.6,3.4-6.5,1.6
		c-2.5-2.4-5.6-2.6-5.7-2.6l6.7,10.2l-10.2-6.7l0.1,0.1c0.4,0.5,2.1,2.4,1.2,5.6c-1.3,4.9,2.6,5.3,2.6,5.3c-2.5,1.4-5.7-0.8-5.7-3.4
		c-0.1-3.5-2.1-5.8-2.2-5.9l-2.5,11.9l-2.5-11.9c0,0.4,0,3.2-3.1,5c-4.4,2.5-1.9,5.6-1.9,5.6c-2.8-0.7-3.4-4.6-1.6-6.5
		c2.4-2.5,2.6-5.6,2.6-5.7L6.9,40.3l6.7-10.2l-0.1,0.1c-0.5,0.4-2.4,2.1-5.6,1.2C3,30.1,2.6,34,2.6,34c-1.4-2.5,0.8-5.7,3.4-5.7
		c3.5-0.1,5.8-2.1,5.9-2.2L0,23.6l11.9-2.5h-0.1c-0.6,0-3.2-0.2-4.9-3.1c-2.5-4.4-5.6-1.9-5.6-1.9c0.7-2.8,4.6-3.4,6.5-1.6
		c2.3,2.2,5,2.6,5.6,2.6l0.1,0l0,0L6.9,6.9l10.2,6.7L17,13.5c-0.4-0.4-2.1-2.4-1.2-5.6c1.3-4.9-2.6-5.3-2.6-5.3
		c2.5-1.4,5.7,0.8,5.7,3.4c0,3.5,2.1,5.8,2.2,5.9L23.6,0z">
  </path>
 </g>
</svg>