<svg width="65" height="55" viewBox="0 0 65 55" fill="none" xmlns="http://www.w3.org/2000/svg">
<path d="M27.8403 55C28.8119 52.4545 28.0629 51.09 25.9172 50.0922C17.4758 46.1211 12.0101 39.7064 10.3097 30.3184C10.2287 29.8297 10.1477 29.3613 10.1072 28.8725C9.78334 24.5757 10.3906 24.1073 14.1356 25.7975C18.3867 27.7118 23.3058 26.8768 26.7471 23.6389C30.7148 19.9122 32.0913 14.1899 30.0873 9.11913C28.0629 4.00769 24.1965 0.953034 18.8523 0.179189C12.5769 -0.737206 7.61732 1.91016 4.03428 7.00124C-0.722872 13.7826 -0.702629 21.3174 1.17999 28.9947C3.97355 40.4191 11.7469 47.4856 21.8685 52.373C23.7916 53.2894 25.7957 54.104 27.8403 55Z" fill="currentColor"/>
<path d="M61.8582 55C62.7919 52.3333 61.9191 50.9898 59.7878 50.0127C51.4655 46.1449 46.1271 39.8141 44.3409 30.674C44.2394 30.1244 44.1379 29.5544 44.0973 28.9844C43.7928 24.5264 44.2597 24.1803 48.2381 25.8903C53.0894 27.9666 58.5699 26.5417 62.0206 22.3075C65.7149 17.768 65.9991 11.1929 62.731 6.40911C57.7174 -0.898862 47.751 -2.18132 41.012 3.72206C35.2067 8.79082 33.5219 15.4474 34.1106 22.8775C35.1864 36.6181 42.7779 45.7378 54.6321 51.7633C56.9055 52.944 59.321 53.8804 61.8582 55Z" fill="currentColor"/>
</svg>
