<svg viewBox="0 0 48 48" fill="none" xmlns="http://www.w3.org/2000/svg">
  <g clip-path="url(#clip0_27_4429)">
    <path d="M510.47 -351.07H-91.21V712.3H510.47V-351.07Z" fill="none" stroke="currentColor" stroke-width="2.03" stroke-linecap="round" stroke-linejoin="round"/>
    <path d="M19.51 24V26.74" stroke="currentColor" stroke-width="0.6" stroke-miterlimit="10" stroke-linecap="round"/>
    <path d="M18.24 28.8398V37.9998" stroke="currentColor" stroke-width="0.6" stroke-miterlimit="10" stroke-linecap="round"/>
    <path d="M29.4299 28.8398V37.9998" stroke="currentColor" stroke-width="0.6" stroke-miterlimit="10" stroke-linecap="round"/>
    <path d="M28.22 24V26.74" stroke="currentColor" stroke-width="0.6" stroke-miterlimit="10" stroke-linecap="round"/>
    <path d="M42.84 9.66978H38.7701L36.5201 14.2898L30 14.4098C30 6.26978 24.3 6.63978 23.91 6.63978C23.52 6.63978 17.83 6.26978 17.83 14.4098L11.3 14.2898L9.00005 9.66978H5.00005L2.30005 14.8398V38.5598H45.51V14.8398L42.84 9.66978Z" stroke="currentColor" stroke-width="0.6" stroke-miterlimit="10" stroke-linecap="round"/>
    <path d="M5.1001 7.9502V9.4502" stroke="currentColor" stroke-width="0.6" stroke-miterlimit="10" stroke-linecap="round"/>
    <path d="M8.93994 7.9502V9.4502" stroke="currentColor" stroke-width="0.6" stroke-miterlimit="10" stroke-linecap="round"/>
    <path d="M23.9399 30.2402V30.5002" stroke="currentColor" stroke-width="0.6" stroke-miterlimit="10" stroke-linecap="round"/>
    <path d="M23.8799 33.0801V38.5601" stroke="currentColor" stroke-width="0.6" stroke-miterlimit="10" stroke-linecap="round"/>
    <path d="M31.69 16.44L23.67 11.71L16.03 16.44" stroke="currentColor" stroke-width="0.6" stroke-miterlimit="10" stroke-linecap="round"/>
    <path d="M1.12988 16.4399C2.93473 15.471 4.95138 14.9639 6.99988 14.9639C9.04838 14.9639 11.065 15.471 12.8699 16.4399" stroke="currentColor" stroke-width="0.6" stroke-miterlimit="10" stroke-linecap="round"/>
    <path d="M35.1299 16.4399C36.9347 15.471 38.9514 14.9639 40.9999 14.9639C43.0484 14.9639 45.065 15.471 46.8699 16.4399" stroke="currentColor" stroke-width="0.6" stroke-miterlimit="10" stroke-linecap="round"/>
    <path d="M19.51 20.6001C19.9762 19.8769 20.6033 19.2714 21.3423 18.8307C22.0813 18.3901 22.9122 18.1263 23.77 18.0601C24.6299 18.1018 25.466 18.3556 26.2041 18.7987C26.9421 19.2419 27.559 19.8607 28 20.6001" stroke="currentColor" stroke-width="0.6" stroke-miterlimit="10" stroke-linecap="round"/>
    <path d="M16.2901 19.3301H11.3401" stroke="currentColor" stroke-width="0.6" stroke-miterlimit="10" stroke-linecap="round"/>
    <path d="M26.6 33.0801H21.27" stroke="currentColor" stroke-width="0.6" stroke-miterlimit="10" stroke-linecap="round"/>
    <path d="M31.69 16.4399H16.03" stroke="currentColor" stroke-width="0.6" stroke-miterlimit="10" stroke-linecap="round"/>
    <path d="M19.51 40.4902H28.6" stroke="currentColor" stroke-width="0.6" stroke-miterlimit="10" stroke-linecap="round"/>
    <path d="M36.4101 19.3301H31.0901" stroke="currentColor" stroke-width="0.6" stroke-miterlimit="10" stroke-linecap="round"/>
    <path d="M45.51 27.1699H2.30005" stroke="currentColor" stroke-width="0.6" stroke-miterlimit="10" stroke-linecap="round"/>
    <path d="M45.51 28.7402H2.30005" stroke="currentColor" stroke-width="0.6" stroke-miterlimit="10" stroke-linecap="round"/>
    <path d="M11.3401 14.29V26.74" stroke="currentColor" stroke-width="0.6" stroke-miterlimit="10" stroke-linecap="round"/>
    <path d="M11.3401 28.7402V38.5602" stroke="currentColor" stroke-width="0.6" stroke-miterlimit="10" stroke-linecap="round"/>
    <path d="M16.6299 16.4399V27.1099" stroke="currentColor" stroke-width="0.6" stroke-miterlimit="10" stroke-linecap="round"/>
    <path d="M16.6299 28.8398V38.2098" stroke="currentColor" stroke-width="0.6" stroke-miterlimit="10" stroke-linecap="round"/>
    <path d="M31.0901 28.8398V38.2098" stroke="currentColor" stroke-width="0.6" stroke-miterlimit="10" stroke-linecap="round"/>
    <path d="M36.3999 28.9702V38.3302" stroke="currentColor" stroke-width="0.6" stroke-miterlimit="10" stroke-linecap="round"/>
    <path d="M31.0901 16.4399V27.1099" stroke="currentColor" stroke-width="0.6" stroke-miterlimit="10" stroke-linecap="round"/>
    <path d="M36.3999 14.29V27.11" stroke="currentColor" stroke-width="0.6" stroke-miterlimit="10" stroke-linecap="round"/>
    <path d="M21.0901 27.1099H26.6601V23.1099C26.6601 23.1099 26.6601 20.1099 23.9101 20.1099C21.1601 20.1099 21.0901 23.1099 21.0901 23.1099V27.1099Z" stroke="currentColor" stroke-width="0.6" stroke-miterlimit="10" stroke-linecap="round"/>
    <path d="M13.0801 27.11H14.9201V25.34C14.9201 25.34 14.9201 24 14.0001 24C13.0801 24 13.0701 25.34 13.0701 25.34L13.0801 27.11Z" stroke="currentColor" stroke-width="0.6" stroke-miterlimit="10" stroke-linecap="round"/>
    <path d="M13.0601 38.5601H14.9001V36.7201C14.9001 36.7201 14.9001 35.3301 13.9901 35.3301C13.0801 35.3301 13.0601 36.7201 13.0601 36.7201V38.5601Z" stroke="currentColor" stroke-width="0.6" stroke-miterlimit="10" stroke-linecap="round"/>
    <path d="M32.8201 38.5601H34.6601V36.7201C34.6601 36.7201 34.6601 35.3301 33.7501 35.3301C32.8401 35.3301 32.8201 36.7201 32.8201 36.7201V38.5601Z" stroke="currentColor" stroke-width="0.6" stroke-miterlimit="10" stroke-linecap="round"/>
    <path d="M32.8201 27.11H34.6601V25.34C34.6601 25.34 34.6601 24 33.7501 24C32.8401 24 32.8201 25.34 32.8201 25.34V27.11Z" stroke="currentColor" stroke-width="0.6" stroke-miterlimit="10" stroke-linecap="round"/>
    <path d="M39.55 27.1101H42.4501V24.5401C42.4501 24.5401 42.45 22.6001 41.0201 22.6001C39.5901 22.6001 39.55 24.5401 39.55 24.5401V27.1101Z" stroke="currentColor" stroke-width="0.6" stroke-miterlimit="10" stroke-linecap="round"/>
    <path d="M5.31006 27.1101H8.21006V24.5401C8.21006 24.5401 8.21006 22.6001 6.78006 22.6001C5.35006 22.6001 5.31006 24.5401 5.31006 24.5401V27.1101Z" stroke="currentColor" stroke-width="0.6" stroke-miterlimit="10" stroke-linecap="round"/>
    <path d="M39.55 38.5601H42.4501V36.0001C42.4501 36.0001 42.45 34.0601 41.0201 34.0601C39.5901 34.0601 39.55 36.0001 39.55 36.0001V38.5601Z" stroke="currentColor" stroke-width="0.6" stroke-miterlimit="10" stroke-linecap="round"/>
    <path d="M5.31006 38.5601H8.21006V36.0001C8.21006 36.0001 8.21006 34.0601 6.78006 34.0601C5.35006 34.0601 5.31006 36.0001 5.31006 36.0001V38.5601Z" stroke="currentColor" stroke-width="0.6" stroke-miterlimit="10" stroke-linecap="round"/>
    <path d="M21.2 38.5598H26.6V32.4698C26.6 32.4698 26.6 30.8198 23.94 30.8198C21.28 30.8198 21.2 32.4698 21.2 32.4698V38.5598Z" stroke="currentColor" stroke-width="0.6" stroke-miterlimit="10" stroke-linecap="round"/>
    <path d="M38.8999 7.9502V9.4502" stroke="currentColor" stroke-width="0.6" stroke-miterlimit="10" stroke-linecap="round"/>
    <path d="M42.73 7.9502V9.4502" stroke="currentColor" stroke-width="0.6" stroke-miterlimit="10" stroke-linecap="round"/>
    <path d="M20.75 5.56982V7.06982" stroke="currentColor" stroke-width="0.6" stroke-miterlimit="10" stroke-linecap="round"/>
    <path d="M26.8101 5.56982V7.06982" stroke="currentColor" stroke-width="0.6" stroke-miterlimit="10" stroke-linecap="round"/>
    <path d="M45.5201 38.5601H2.30005V42.4201H45.5201V38.5601Z" stroke="currentColor" stroke-width="0.6" stroke-miterlimit="10" stroke-linecap="round"/>
    <path d="M41.04 20.1699C41.7414 20.1699 42.31 19.6013 42.31 18.8999C42.31 18.1985 41.7414 17.6299 41.04 17.6299C40.3386 17.6299 39.77 18.1985 39.77 18.8999C39.77 19.6013 40.3386 20.1699 41.04 20.1699Z" stroke="currentColor" stroke-width="0.6" stroke-miterlimit="10" stroke-linecap="round"/>
    <path d="M6.75999 20.1699C7.46139 20.1699 8.02999 19.6013 8.02999 18.8999C8.02999 18.1985 7.46139 17.6299 6.75999 17.6299C6.05859 17.6299 5.48999 18.1985 5.48999 18.8999C5.48999 19.6013 6.05859 20.1699 6.75999 20.1699Z" stroke="currentColor" stroke-width="0.6" stroke-miterlimit="10" stroke-linecap="round"/>
    <path d="M19.2401 38.5601H15.8301V42.3401H19.2401V38.5601Z" stroke="currentColor" stroke-width="0.6" stroke-miterlimit="10" stroke-linecap="round"/>
    <path d="M32.0101 38.5601H28.6001V42.3401H32.0101V38.5601Z" stroke="currentColor" stroke-width="0.6" stroke-miterlimit="10" stroke-linecap="round"/>
  </g>
  <defs>
    <clipPath id="clip0_27_4429">
      <rect width="100%" height="100%" fill="none"/>
    </clipPath>
  </defs>
</svg>
